<svg id="Layer_1" data-name="Layer 1" xmlns="http://www.w3.org/2000/svg" viewBox="0 0 11.51 11.52" width="22px" height="22px"><defs><style>.cls-1{fill:none;stroke:#5a5a5a;stroke-miterlimit:10;stroke-width:0.5px;}.cls-2{fill:#5a5a5a;}</style></defs><title>fb</title><path class="cls-1" d="M2.51,0h6a2.45,2.45,0,0,1,1,.19,2.52,2.52,0,0,1,.81.53,2.41,2.41,0,0,1,.54.8,2.32,2.32,0,0,1,.19.94v6.1a2.41,2.41,0,0,1-.19.95,2.37,2.37,0,0,1-.54.79,2.55,2.55,0,0,1-.81.54,2.65,2.65,0,0,1-1,.19h-6a2.57,2.57,0,0,1-1-.19,2.49,2.49,0,0,1-.82-.54,2.52,2.52,0,0,1-.54-.79A2.41,2.41,0,0,1,0,8.56V2.46a2.32,2.32,0,0,1,.19-.94A2.57,2.57,0,0,1,.73.72,2.46,2.46,0,0,1,1.55.19,2.38,2.38,0,0,1,2.51,0Z" transform="translate(0.25 0.25)"/><path class="cls-2" d="M7.26,3H6.48A1.31,1.31,0,0,0,5,4.36V5H4.26a.12.12,0,0,0-.13.12V6a.12.12,0,0,0,.13.11H5V8.4a.11.11,0,0,0,.12.11h1A.11.11,0,0,0,6.3,8.4V6.11h.92A.11.11,0,0,0,7.34,6V5.1a.11.11,0,0,0,0-.08.12.12,0,0,0-.09,0H6.3V4.45c0-.25.07-.38.43-.38h.53A.12.12,0,0,0,7.38,4V3.12A.12.12,0,0,0,7.26,3Z" transform="translate(0.25 0.25)"/></svg>