<svg id="Layer_1" data-name="Layer 1" xmlns="http://www.w3.org/2000/svg" viewBox="0 0 12.02 12.03" width="22px" height="22px"><defs><style>.cls-1{fill:none;stroke:#5a5a5a;stroke-miterlimit:10;stroke-width:0.52px;}.cls-2{fill:#5a5a5a;}</style></defs><title>instagram</title><path class="cls-1" d="M1.92.44h8.21a1.63,1.63,0,0,1,1.65,1.61v8.29A1.63,1.63,0,0,1,10.13,12H1.92A1.62,1.62,0,0,1,.28,10.34V2.05A1.62,1.62,0,0,1,1.92.44Z" transform="translate(-0.02 -0.18)"/><path class="cls-2" d="M9.25,3A.46.46,0,0,1,9,3.38a.9.9,0,0,1-1,0A.46.46,0,0,1,7.78,3,.49.49,0,0,1,8,2.6a.85.85,0,0,1,.52-.16A.86.86,0,0,1,9,2.6.49.49,0,0,1,9.25,3Z" transform="translate(-0.02 -0.18)"/><path class="cls-2" d="M7.79,5.67a2.22,2.22,0,0,1-.16.85,2.14,2.14,0,0,1-.43.73,2,2,0,0,1-.65.48A1.83,1.83,0,0,1,5,7.73a2,2,0,0,1-.65-.48,2.14,2.14,0,0,1-.43-.73,2.42,2.42,0,0,1-.16-.85,2.46,2.46,0,0,1,.16-.85,2.14,2.14,0,0,1,.43-.73A2,2,0,0,1,5,3.61a1.83,1.83,0,0,1,1.54,0,2,2,0,0,1,.65.48,2.14,2.14,0,0,1,.43.73A2.25,2.25,0,0,1,7.79,5.67Z" transform="translate(-0.02 -0.18)"/></svg>