<svg id="Layer_1" data-name="Layer 1" xmlns="http://www.w3.org/2000/svg" viewBox="0 0 11.51 11.52" width="22px" height="22px"><defs><style>.cls-1{fill:none;stroke:#5a5a5a;stroke-miterlimit:10;stroke-width:0.5px;}.cls-2{fill:#5a5a5a;}</style></defs><title>twitter</title><path class="cls-1" d="M2.51,0h6a2.45,2.45,0,0,1,1,.19,2.52,2.52,0,0,1,.81.53,2.41,2.41,0,0,1,.54.8,2.32,2.32,0,0,1,.19.94v6.1a2.41,2.41,0,0,1-.19.95,2.37,2.37,0,0,1-.54.79,2.55,2.55,0,0,1-.81.54,2.65,2.65,0,0,1-1,.19h-6a2.57,2.57,0,0,1-1-.19,2.49,2.49,0,0,1-.82-.54,2.52,2.52,0,0,1-.54-.79A2.41,2.41,0,0,1,0,8.56V2.46a2.32,2.32,0,0,1,.19-.94A2.57,2.57,0,0,1,.73.72,2.46,2.46,0,0,1,1.55.19,2.38,2.38,0,0,1,2.51,0Z" transform="translate(0.25 0.25)"/><path class="cls-2" d="M8,4a2.34,2.34,0,0,1-.59.16,1.08,1.08,0,0,0,.45-.56,2.12,2.12,0,0,1-.65.24,1.08,1.08,0,0,0-.94-.3,1,1,0,0,0-.82.81,1,1,0,0,0,0,.42A3,3,0,0,1,3.35,3.69a1,1,0,0,0-.14.51A1,1,0,0,0,3.67,5a1.06,1.06,0,0,1-.47-.13h0a1,1,0,0,0,.83,1,.84.84,0,0,1-.27,0l-.2,0a1,1,0,0,0,1,.7,2.08,2.08,0,0,1-1.27.44L3,7.05a3,3,0,0,0,1.58.46A2.88,2.88,0,0,0,7.5,4.63V4.5A2,2,0,0,0,8,4Z" transform="translate(0.25 0.25)"/></svg>